<?xml version="1.0" encoding="utf-8"?>
<!-- Generator: Adobe Illustrator 24.3.0, SVG Export Plug-In . SVG Version: 6.00 Build 0)  -->
<svg version="1.1" id="Layer_1" xmlns="http://www.w3.org/2000/svg" xmlns:xlink="http://www.w3.org/1999/xlink" x="0px" y="0px"
	 viewBox="0 0 65 65" enable-background="new 0 0 65 65" xml:space="preserve">
<path fill="#F3F3F3" d="M33.439,63.559c0-12.518,15.312-21.647,15.5-21.741c0.47-0.282,0.564-0.847,0.376-1.318
	c-0.282-0.471-0.845-0.565-1.315-0.376c-0.564,0.282-10.333,6.212-14.56,15.341V1.441c0-0.565-0.376-0.941-0.939-0.941
	c-0.564,0-0.939,0.376-0.939,0.941v54.024C27.333,46.335,17.564,40.406,17,40.124c-0.47-0.188-1.033-0.094-1.315,0.376
	c-0.188,0.471-0.094,1.035,0.376,1.318c0.188,0.094,15.5,9.224,15.5,21.741c0,0.565,0.376,0.941,0.939,0.941
	C33.064,64.5,33.439,64.124,33.439,63.559z"/>
<g>
</g>
<g>
</g>
<g>
</g>
<g>
</g>
<g>
</g>
<g>
</g>
</svg>
