<svg width="18" height="18" viewBox="0 0 18 18" fill="none" xmlns="http://www.w3.org/2000/svg">
<path d="M0 0V18H18V0H0ZM16.981 16.9812H1.019V1.0188H16.9812L16.981 16.9812Z" fill="white"/>
<path d="M12.905 5.09375H5.09375V12.9051H12.905V5.09375ZM11.8861 11.8863H6.11255V6.11235H11.8859L11.8861 11.8863Z" fill="white"/>
<path d="M11.2078 6.79297H6.79297V11.2082H11.2078V6.79297ZM10.189 10.1892H7.81177V7.81197H10.189V10.1892Z" fill="white"/>
<path d="M14.6041 3.39453H3.39648V14.6025H14.6039L14.6041 3.39453ZM13.5851 13.5835H4.41548V4.41353H13.5851V13.5835Z" fill="white"/>
<path d="M16.3009 1.69922H1.69727V16.3032H16.3009V1.69922ZM15.2821 15.2842H2.71607V2.71822H15.2821V15.2842Z" fill="white"/>
</svg>
