<svg width="24" height="24" viewBox="0 0 24 24" fill="none" xmlns="http://www.w3.org/2000/svg">
<path fill-rule="evenodd" clip-rule="evenodd" d="M12.0001 21V21C11.7343 21.0016 11.4788 20.8972 11.2901 20.71L3.52012 12.93V12.93C1.49167 10.8804 1.49167 7.57967 3.52012 5.53002V5.53002C5.56526 3.49065 8.87498 3.49065 10.9201 5.53002L12.0001 6.61002L13.0801 5.53002V5.53002C15.1253 3.49065 18.435 3.49065 20.4801 5.53002V5.53002C22.5086 7.57967 22.5086 10.8804 20.4801 12.93L12.7101 20.71V20.71C12.5214 20.8972 12.2659 21.0016 12.0001 21V21ZM7.22012 6.00002V6.00002C6.36505 5.99614 5.54401 6.33465 4.94012 6.94002L4.94012 6.94002C3.68283 8.20393 3.68284 10.2461 4.94012 11.51L12.0001 18.58L19.0601 11.51V11.51C20.3174 10.2461 20.3174 8.20393 19.0601 6.94002V6.94002C17.7805 5.73108 15.7797 5.73108 14.5001 6.94002L12.7101 8.74002V8.74002C12.3212 9.13214 11.688 9.13473 11.2959 8.74581C11.294 8.74389 11.292 8.74196 11.2901 8.74002L9.50012 6.94002V6.94002C8.89623 6.33465 8.07518 5.99615 7.22012 6.00002L7.22012 6.00002Z" fill="#1E90FF"/>
</svg>
