<svg width="31" height="32" viewBox="0 0 31 32" fill="none" xmlns="http://www.w3.org/2000/svg">
<path fill-rule="evenodd" clip-rule="evenodd" d="M0 0.0749382C0 0.033551 0.0335507 0 0.074938 0H14.8752C14.9166 0 14.9502 0.0335507 14.9502 0.0749379V15.4373C14.9502 15.4787 14.9166 15.5122 14.8752 15.5122H1.31818C1.31368 15.5122 1.30938 15.5119 1.30496 15.511C0.890554 15.4336 0.0596389 15.0809 0 14.2757V9.44222C0.0374691 8.9801 0.427148 7.891 1.68611 7.23154C2.94507 6.57208 9.67952 2.96006 12.8894 1.23648L1.0547 6.32989C1.051 6.33148 1.04729 6.33275 1.04337 6.3337C0.691801 6.4193 0 6.38015 0 5.54543V0.0749382ZM14.1635 1.08543L4.53398 12.4011C4.34664 12.6009 4.05438 13.0756 4.38411 13.3753C4.53398 13.5252 5.02102 13.75 5.43318 13.188C5.76291 12.7383 11.3908 4.93226 14.1635 1.08543Z" fill="white"/>
<path d="M0.000976562 16.5593C0.000976562 16.5179 0.0345273 16.4844 0.0759145 16.4844H14.8762C14.9176 16.4844 14.9512 16.5179 14.9512 16.5593V22.4794C14.9512 23.2123 7.16238 20.4468 4.95336 19.6751C4.87005 19.646 4.81739 19.7586 4.88631 19.8137C7.52035 21.9202 6.94304 27.8144 8.13178 28.437C9.39074 29.0965 14.9137 25.4645 14.9512 25.9266V30.7601C14.8915 31.5652 14.0606 31.918 13.6462 31.9954C13.6418 31.9962 13.6375 31.9966 13.633 31.9966H0.0759148C0.0345276 31.9966 0.000976562 31.963 0.000976562 31.9217V16.5593Z" fill="white"/>
<path d="M15.8877 15.5122V0H23.9467C25.3325 0 26.545 0.209556 27.5843 0.628669C28.6236 1.04778 29.4319 1.6512 30.0093 2.43893C30.5867 3.22666 30.8753 4.17093 30.8753 5.27173C30.8753 6.38263 30.5775 7.31932 29.9819 8.08181C29.3924 8.84429 28.5628 9.41994 27.4931 9.80875C26.4295 10.1976 25.1866 10.392 23.7644 10.392L21.0959 10.5288L20.9565 7.11987L20.7212 3.25981C21.3168 3.25981 21.9952 5.95686 23.4939 6.96926C24.7304 7.11987 25.0164 6.61239 25.2413 6.33971C25.4723 6.06704 25.5877 5.71104 25.5877 5.27173C25.5877 4.82737 25.4723 4.46633 25.2413 4.1886C25.0164 3.90583 24.6913 3.6988 24.2658 3.56751C23.8465 3.43117 23.339 3.363 22.7434 3.363H20.9565L20.7212 15.5122H15.8877ZM23.7644 10.392L30.8753 15.5122H21.327L21.0959 10.5288L23.7644 10.392Z" fill="white"/>
<path fill-rule="evenodd" clip-rule="evenodd" d="M30.8734 16.4844H15.8857V31.9966H30.8734V16.4844ZM28.3258 19.3297C25.3243 21.2126 21.5103 21.2126 18.5089 19.3297C20.0625 22.4176 20.0625 26.0587 18.5089 29.1466C21.6152 27.6728 25.2194 27.6728 28.3258 29.1466C26.6169 26.0974 26.6169 22.3789 28.3258 19.3297Z" fill="white"/>
</svg>
