<svg width="22" height="21" viewBox="0 0 22 21" fill="none" xmlns="http://www.w3.org/2000/svg">
<path d="M0.364746 3.29601C0.364746 2.62821 0.60123 2.0773 1.0742 1.6433C1.54716 1.20919 2.162 0.992188 2.91881 0.992188C3.6621 0.992188 4.2634 1.20592 4.72283 1.63327C5.1958 2.07404 5.43228 2.64827 5.43228 3.3562C5.43228 3.99729 5.20256 4.5315 4.74313 4.95885C4.27016 5.39962 3.64856 5.62 2.87821 5.62H2.85803C2.11475 5.62 1.51345 5.39962 1.0539 4.95885C0.594463 4.51809 0.364746 3.96381 0.364746 3.29601ZM0.628297 20.8255V7.44304H5.12825V20.8255H0.628297ZM7.62153 20.8255H12.1215V13.3529C12.1215 12.8854 12.1756 12.5249 12.2836 12.2712C12.4729 11.817 12.76 11.433 13.1451 11.1192C13.5302 10.8054 14.0133 10.6485 14.5945 10.6485C16.108 10.6485 16.8648 11.6568 16.8648 13.6735V20.8255H21.3647V13.1526C21.3647 11.1759 20.8918 9.67674 19.9458 8.65509C18.9999 7.63332 17.7499 7.12244 16.1958 7.12244C14.4526 7.12244 13.0945 7.86374 12.1215 9.34622V9.38624H12.1012L12.1215 9.34622V7.44304H7.62153C7.64848 7.87039 7.66201 9.19934 7.66201 11.4297C7.66201 13.6601 7.64848 16.792 7.62153 20.8255Z" fill="#ECE5DB"/>
</svg>
