<svg width="25" height="25" viewBox="0 0 25 25" fill="none" xmlns="http://www.w3.org/2000/svg">
<path d="M18.7512 4.86284C18.4743 4.86284 18.2036 4.94497 17.9733 5.09874C17.7432 5.25262 17.5637 5.47125 17.4577 5.72711C17.3517 5.98295 17.3241 6.26436 17.3781 6.53596C17.4321 6.80756 17.5654 7.05699 17.7612 7.25275C17.957 7.44864 18.2064 7.58187 18.478 7.63589C18.7496 7.68991 19.031 7.66225 19.2869 7.55632C19.5427 7.45027 19.7614 7.27084 19.9153 7.04066C20.069 6.81036 20.1512 6.53969 20.1512 6.26284C20.1512 5.89149 20.0037 5.53542 19.7411 5.27292C19.4786 5.01031 19.1225 4.86284 18.7512 4.86284ZM24.1178 7.68617C24.0952 6.71819 23.9139 5.76047 23.5812 4.85117C23.2845 4.07312 22.8228 3.36869 22.2278 2.78617C21.6501 2.18814 20.944 1.72941 20.1628 1.44451C19.256 1.10174 18.2971 0.916238 17.3278 0.896171C16.0912 0.826171 15.6945 0.826172 12.5212 0.826172C9.34783 0.826172 8.95116 0.826171 7.71449 0.896171C6.74522 0.916238 5.78634 1.10174 4.87949 1.44451C4.09981 1.73221 3.39421 2.19071 2.81449 2.78617C2.21646 3.36391 1.75773 4.06997 1.47283 4.85117C1.13006 5.75802 0.944558 6.7169 0.924492 7.68617C0.854492 8.92284 0.854492 9.3195 0.854492 12.4928C0.854492 15.6662 0.854492 16.0628 0.924492 17.2995C0.944558 18.2688 1.13006 19.2277 1.47283 20.1345C1.75773 20.9157 2.21646 21.6218 2.81449 22.1995C3.39421 22.795 4.09981 23.2535 4.87949 23.5412C5.78634 23.8839 6.74522 24.0694 7.71449 24.0895C8.95116 24.1595 9.34783 24.1595 12.5212 24.1595C15.6945 24.1595 16.0912 24.1595 17.3278 24.0895C18.2971 24.0694 19.256 23.8839 20.1628 23.5412C20.944 23.2563 21.6501 22.7975 22.2278 22.1995C22.8254 21.6192 23.2875 20.9141 23.5812 20.1345C23.9139 19.2252 24.0952 18.2675 24.1178 17.2995C24.1178 16.0628 24.1878 15.6662 24.1878 12.4928C24.1878 9.3195 24.1878 8.92284 24.1178 7.68617ZM22.0178 17.1595C22.0093 17.9001 21.8753 18.6338 21.6212 19.3295C21.4348 19.8372 21.1357 20.296 20.7462 20.6712C20.3677 21.0568 19.9099 21.3553 19.4045 21.5462C18.7088 21.8003 17.9751 21.9343 17.2345 21.9428C16.0678 22.0012 15.6362 22.0128 12.5678 22.0128C9.49949 22.0128 9.06783 22.0128 7.90116 21.9428C7.13221 21.9572 6.36653 21.8389 5.63783 21.5928C5.15459 21.3923 4.71779 21.0944 4.35449 20.7178C3.96728 20.343 3.67176 19.8839 3.49116 19.3762C3.20638 18.6706 3.04829 17.9201 3.02449 17.1595C3.02449 15.9928 2.95449 15.5612 2.95449 12.4928C2.95449 9.42451 2.95449 8.99284 3.02449 7.82617C3.02974 7.06912 3.16799 6.31872 3.43282 5.60951C3.63816 5.11706 3.95351 4.67816 4.35449 4.32617C4.70893 3.92507 5.14701 3.60646 5.63783 3.39284C6.34903 3.13617 7.09849 3.00212 7.85449 2.99617C9.02116 2.99617 9.45283 2.92617 12.5212 2.92617C15.5895 2.92617 16.0212 2.92617 17.1878 2.99617C17.9284 3.00469 18.6621 3.13874 19.3578 3.39284C19.888 3.58966 20.3638 3.90944 20.7462 4.32617C21.1285 4.68457 21.4273 5.12266 21.6212 5.60951C21.8805 6.31989 22.0147 7.06994 22.0178 7.82617C22.0762 8.99284 22.0878 9.42451 22.0878 12.4928C22.0878 15.5612 22.0762 15.9928 22.0178 17.1595ZM12.5212 6.50784C11.3379 6.51017 10.182 6.86309 9.19931 7.52214C8.21651 8.18119 7.45129 9.11674 7.00002 10.2106C6.54887 11.3044 6.43197 12.5074 6.66426 13.6676C6.89654 14.8278 7.46739 15.8931 8.30494 16.729C9.14238 17.5648 10.2088 18.1337 11.3695 18.3636C12.5301 18.5937 13.733 18.4745 14.8259 18.0211C15.9188 17.5678 16.8529 16.8006 17.5099 15.8167C18.1671 14.8327 18.5178 13.6761 18.5178 12.4928C18.5193 11.7055 18.3652 10.9255 18.0642 10.198C17.7633 9.47036 17.3215 8.80944 16.7642 8.25329C16.2069 7.69702 15.545 7.25649 14.8169 6.95689C14.0887 6.6574 13.3085 6.50481 12.5212 6.50784ZM12.5212 16.3778C11.7528 16.3778 11.0017 16.15 10.3628 15.7231C9.72384 15.2962 9.22591 14.6894 8.93191 13.9795C8.63779 13.2697 8.56091 12.4885 8.71082 11.7349C8.86074 10.9813 9.23069 10.289 9.77401 9.74569C10.3173 9.20237 11.0096 8.83242 11.7632 8.6825C12.5168 8.53259 13.298 8.60947 14.0078 8.90359C14.7178 9.19759 15.3245 9.69552 15.7514 10.3345C16.1783 10.9734 16.4062 11.7245 16.4062 12.4928C16.4062 13.003 16.3057 13.5082 16.1104 13.9795C15.9152 14.451 15.629 14.8791 15.2683 15.24C14.9075 15.6007 14.4793 15.8869 14.0078 16.0821C13.5365 16.2774 13.0313 16.3778 12.5212 16.3778Z" fill="#ECE5DB"/>
</svg>
